# xmcd
#
# Track frame offsets: 
#        150
#        21985
#        48675
#        70726
#        99262
#        128167
#        163732
#        194866
#        208934
#        223628
#        249489
#        278317
#        302109
#        326876
#        345673
#
# Disc length: 4891 seconds
#
# Revision: 0
# Processed by: cddbd v1.5.2PL0 Copyright (c) Steve Scherf et al.
# Submitted via: ExactAudioCopy v1.3
#
DISCID=e913190f
DTITLE=Enrico Crivellaro - Walkn' And Walkn' [ disk 1 ]
DYEAR=1996
DGENRE=Electric Blues
TTITLE0=Stand By
TTITLE1=Black Coffee
TTITLE2=Guitar Rumba
TTITLE3=Say No More
TTITLE4=Walkn' And Walkn'
TTITLE5=Hubert
TTITLE6=In A Sentimental Mood
TTITLE7=Mosquito Bite
TTITLE8=Drinkn' Cheap Champagne
TTITLE9=One For Lucy
TTITLE10=Blackout
TTITLE11=Casa Babylon
TTITLE12=Mr. Willits Playboy
TTITLE13=The 'In' Crowd
TTITLE14=Help Me Flip Another Flop
EXTD=
EXTT0=
EXTT1=
EXTT2=
EXTT3=
EXTT4=
EXTT5=
EXTT6=
EXTT7=
EXTT8=
EXTT9=
EXTT10=
EXTT11=
EXTT12=
EXTT13=
EXTT14=
PLAYORDER=
